<?xml version="1.0" encoding="iso-8859-1"?>
<!-- Generator: Adobe Illustrator 16.0.0, SVG Export Plug-In . SVG Version: 6.00 Build 0)  -->
<!DOCTYPE svg PUBLIC "-//W3C//DTD SVG 1.1//EN" "http://www.w3.org/Graphics/SVG/1.1/DTD/svg11.dtd">
<svg version="1.1" id="Capa_1" xmlns="http://www.w3.org/2000/svg" xmlns:xlink="http://www.w3.org/1999/xlink" x="0px" y="0px"
	 width="189.187px" height="189.187px" viewBox="0 0 189.187 189.187" style="enable-background:new 0 0 189.187 189.187;"
	 xml:space="preserve">
<g>
	<g>
		<path d="M67.95,117.634c-0.117-0.019-0.211,0.019-0.324,0.009c0.788-6.107-0.767-13.257-0.718-19.418
			c0.064-8.036,0.115-16.123,0.81-24.136c4.668-1.522,8.311-4.404,9.23-9.558c0.493-2.767-1.178-5.535-4.221-5.541
			c-11.593-0.021-23.185-0.082-34.778-0.119c-1.872-0.006-3.973,1.362-4.336,3.301c-0.585,3.129,0.106,4.241,1.22,7.011
			c1.07,2.66,3.807,3.389,5.959,2.751c0.14,0.126,0.315,0.235,0.508,0.335c0.598,9.128,0.355,18.436,0.439,27.568
			c0.061,6.617-1.522,15.026,0.461,21.503c-18.58-2.453-38.952,18.064-36.04,36.861c3.703,23.902,29.542,29.694,50.215,30.845
			c20.322,1.132,45.5-4.325,53.288-25.327C118.464,139.98,86.843,120.713,67.95,117.634z M44.298,125.653
			c1.029-0.156,1.505-1.04,1.49-1.944c0.699-0.26,1.318-0.812,1.637-1.684c2.388-6.528,1.059-15.37,0.972-22.189
			c-0.111-8.731-0.912-17.029-3.158-25.305c4.825,0.817,11.72,1.497,17.875,0.608c-1.699,7.598-2.831,15.296-3.189,23.085
			c-0.266,5.773-1.677,16.18,2.1,21.142c0.343,0.45,0.824,0.81,1.361,1.052c-0.615,1.828,0.011,3.969,2.528,4.61
			c11.152,2.837,24.721,8.735,31.642,18.464c-24.114-0.597-55.866-8.055-79.329,0.487C24.281,134.749,35.239,127.022,44.298,125.653
			z"/>
		<path d="M182.684,169.433c-3.321-14.781-9.309-29.601-14.724-43.706c-7.062-18.399-8.206-39.623-8.302-59.367
			c4.112-1.846,7.447-4.675,9.146-8.708c0.996-2.365-1.056-5.103-3.257-5.735c-9.978-2.862-20.309-1.336-30.395,0.103
			c-4.891,0.698-8.879,0.188-11.663,4.629c-1.659,2.646,0.071,5.903,2.479,7.244c0.498,0.277,0.984,0.444,1.456,0.526
			c0.126,0.111,0.229,0.235,0.385,0.329c1.943,1.174,4.303,2.121,6.879,2.838c-1.842,17.487-1.537,35.057-4.531,52.466
			c-2.936,17.072-11.063,32.493-12.307,49.969c-1.705,23.973,16.133,15.597,32.25,16.739
			C164.125,187.755,187.41,190.469,182.684,169.433z M150.261,135.563c-2.904,0.21-5.811,0.334-8.723,0.371
			c-1.449,0.018-2.892-0.063-4.337-0.174c-1.267-0.096-1.624-0.149-1.689-0.036c-0.264-0.913-0.983-1.555-1.848-1.793
			c5.896-21.546,7.23-43.272,4.738-65.505c4.634,0.808,9.689,0.863,14.383,0.016c0.196,23.001,2.547,43.998,10.589,65.803
			c0.046,0.126,0.087,0.255,0.134,0.381C159.086,134.8,154.673,135.245,150.261,135.563z"/>
		<path d="M48.277,30.532c-2.925-2.184-5.906-1.735-8.221,0.005c-2.414,0.027-4.699,0.882-6.622,2.781
			c-2.792,2.757-3.616,7.224-2.494,10.906c2.652,8.701,16.687,10.421,21.689,3.015C56.368,41.702,53.104,34.136,48.277,30.532z"/>
		<path d="M80.206,35.396c-2.191-1.65-5.309-1.101-7.556,0.02c-1.046,0.522-1.927,1.326-2.731,2.218
			c-1.315,0.223-2.448,0.832-3.474,2.257c-1.546,2.146-1.714,4.979-1.277,7.506c0.455,2.631,2.1,4.768,4.578,5.723
			c3.184,1.227,7.456-1.907,9.786-3.764C84.035,45.766,85.058,39.05,80.206,35.396z"/>
		<path d="M67.397,9.49c-1.288-4.056-5.831-6.946-10.246-8.013C57.017,0.685,56.425,0.004,55.339,0
			c-4.334-0.017-8.909,1.238-11.04,5.379c-1.923,3.738-0.392,7.471,2.404,10.077c0.982,1.759,2.398,3.148,4.275,3.584
			c1.16,0.27,2.128-0.048,2.889-0.688C60.798,19.139,69.708,16.766,67.397,9.49z"/>
	</g>
</g>
<g>
</g>
<g>
</g>
<g>
</g>
<g>
</g>
<g>
</g>
<g>
</g>
<g>
</g>
<g>
</g>
<g>
</g>
<g>
</g>
<g>
</g>
<g>
</g>
<g>
</g>
<g>
</g>
<g>
</g>
</svg>
