<?xml version="1.0" encoding="iso-8859-1"?>
<!-- Generator: Adobe Illustrator 16.0.0, SVG Export Plug-In . SVG Version: 6.00 Build 0)  -->
<!DOCTYPE svg PUBLIC "-//W3C//DTD SVG 1.1//EN" "http://www.w3.org/Graphics/SVG/1.1/DTD/svg11.dtd">
<svg version="1.1" id="Capa_1" xmlns="http://www.w3.org/2000/svg" xmlns:xlink="http://www.w3.org/1999/xlink" x="0px" y="0px"
	 width="191.756px" height="191.756px" viewBox="0 0 191.756 191.756" style="enable-background:new 0 0 191.756 191.756;"
	 xml:space="preserve">
<g>
	<g>
		<path d="M51.426,105.235c-0.399-3.226-1.428-14.78-6.188-15.649c-8.894-1.625-7.887,19.265-13.807,22.759
			c-13.852,8.175-2.05-23.78-1.019-28.823c0.348-1.7-0.755-3.475-2.585-3.45C15.392,80.246,6.202,100.271,2.16,109.838
			c-7.32,17.323,5.429,32.915,16.357,45.377c0.245,0.28,0.509,0.472,0.779,0.612c-0.456,1.229,0.192,2.873,1.925,3.017
			c6.221,0.518,15.222,2.668,20.601-1.751c6.301-5.176,8.497-14.705,9.441-22.492C52.439,124.886,52.627,114.961,51.426,105.235z"/>
		<path d="M52.829,167.653c-0.304-1.65-2.049-2.222-3.457-1.994c-12.119,1.947-24.159-2.41-36.201,0.476
			c-2.4,0.575-1.916,3.614-0.279,4.45c-1.433,3.818-1.52,7.966-1.072,12.098c0.167,1.538,1.145,2.842,2.795,2.841
			c11.845-0.006,23.679-0.064,35.504-0.848c1.271-0.085,2.313-0.808,2.688-2.08C54.29,177.547,53.769,172.76,52.829,167.653z"/>
		<path d="M165.989,152.534c-8.363-23.342-31.643-6.538-46.465-0.415c-1.438,0.594-2.551,1.972-2.041,3.653
			c1.322,4.367,3.442,12.2,7.438,14.656c1.453,0.894,2.952-0.097,3.354-1.538c4.288-1.771,10.188-3.077,14.726-4.761
			c7.251-2.691,14.575-5.234,21.677-8.32C165.771,155.336,166.384,153.633,165.989,152.534z"/>
		<path d="M158.245,107.204c-0.395-6.028-1.356-13.696-5.826-18.131c-3.027-3.004-6.252-1.704-8.89,0.665
			c-1.681-4.799-5.253-8.476-9.432-7.423c0.6-10.631,1.236-30.511-7.949-29.581c-11.927,1.208-10.394,24.204-8.908,34.842
			c-2.013,0.179-4.02,0.903-5.587,2.006c-4.746,3.339-5.775,10.108-5.97,15.503c-0.524,14.515,6.644,31.404,21.007,35.911
			c10.137,3.181,19.986-4.358,25.783-11.963C157.731,122.136,158.797,115.627,158.245,107.204z M111.555,101.536
			c-0.073-0.036-0.142-0.092-0.216-0.121c0.367-2.526,1.188-4.974,2.81-6.876c0.228-0.267,0.472-0.49,0.723-0.694
			C113.075,95.933,112.025,98.597,111.555,101.536z M137.911,134.304c0.213-0.108,0.432-0.208,0.642-0.321
			c3.55-1.895,6.807-4.548,9.469-7.688C145.345,129.811,141.785,132.678,137.911,134.304z"/>
		<path d="M102.801,110.57c-6.151-2.135-13.112-1.463-19.526-1.295c-9.024,0.237-17.756,0.383-26.66-1.417
			c-1.73-0.35-2.931,0.76-3.251,2.067c-0.453,0.273-0.796,0.742-0.809,1.41c-0.044,2.283,0.333,4.354,0.715,6.613
			c0.202,1.192,1.509,2.044,2.63,2.034c8.919-0.064,17.826,0.045,26.744,0.148c5.621,0.065,14.951,1.65,19.798-1.795
			c1.087-0.772,1.312-2.087,0.77-3.069C105.059,114.351,105.073,111.359,102.801,110.57z"/>
		<path d="M184.117,14.229c-10.211-8.989-28.904-6.365-41.192-5.864c-20.862,0.851-41.735-2.005-62.63-1.683
			C69.763,6.843,59.245,6.018,48.72,6.287c-6.433,0.165-13.336,1.235-18.273,5.715c-3.839,3.484-4.004,9.776-4.258,14.558
			c-0.41,7.685-1.524,15.26-2.19,22.923c-1.13,13.012-0.04,28.093,13.02,33.899c0.059,0.036,0.118,0.072,0.177,0.108
			c0.003-0.007,0.006-0.014,0.009-0.021c0.218,0.095,0.412,0.208,0.637,0.298c0.074,0.029,0.143,0.04,0.215,0.062l0.719,0.427
			c1.469,1.184,3.209,0.203,3.412-1.207c0.063,0.029,0.111,0.075,0.176,0.102c0.683,0.285,1.635-0.446,1.542-1.194
			c-0.93-7.455-0.722-15.103-0.313-22.617c0.56-10.3-0.42-20.767,1.066-30.989c0.656-4.516,2.425-10.598,7.09-12.171
			c3.946-1.331,9.442,0.193,13.446,0.595c13.992,1.405,28.438,0.59,42.479,0.436c11.705-0.129,23.52,0.261,35.194-0.64
			c10.406-0.803,26.701-4.114,25.494,11.314c-2.088,26.692-0.717,53.591-1.428,80.354c-1.589,0.827-1.84,2.207-2.319,4.006
			c-0.206,0.771-0.127,1.438,0.13,1.979c-0.267,0.397-0.44,0.878-0.395,1.275c0.062,0.548,0.094,1.088,0.376,1.578
			c0.108,0.144,0.219,0.288,0.329,0.432c-0.219-0.272-0.161-0.193,0.172,0.236c0.084,0.085,0.182,0.136,0.273,0.196
			c0.291,1.167,1.174,2.18,2.691,2.241c12.996,0.534,17.772-11.236,19.383-22.518c1.97-13.812,1.34-28.14,2.744-42.07
			C191.57,43.173,194.766,23.603,184.117,14.229z M29.574,48.007c0.05-0.476,0.102-0.929,0.153-1.391
			c0.169,0.025,0.34,0.036,0.514,0.032c0.009,0.319,0.07,0.611,0.164,0.878C30.079,47.661,29.809,47.824,29.574,48.007z
			 M37.723,59.341c-0.093,1.64-0.33,3.779-0.509,6.108c-4.625-2.134-4.296-8.454-3.736-13.303c1.115-0.219,2.239-0.267,3.43-0.271
			c0.352-0.001,0.659-0.071,0.938-0.176C37.877,54.282,37.865,56.838,37.723,59.341z M183.261,60.521
			c-0.152,5.653-1.653,11.975-6.655,13.696c0-3.797,0.09-7.576,0.383-11.385c0.373-4.868,0.586-11.102,2.93-15.594
			c0.932,1.32,1.568,2.913,2.159,4.4C183.206,54.479,183.343,57.491,183.261,60.521z"/>
		<path d="M152.843,26.212c-12.97-5.882-31.433-3.681-45.26-3.228c-18.259,0.599-36.862,1.256-54.986,3.65
			c-2.02,0.266-2.037,2.958,0,3.207c16.301,1.994,33.039-0.12,49.372-0.864c8.265-0.376,16.532-0.536,24.805-0.372
			c8.271,0.165,16.724,2.31,24.904,1.979C153.777,30.5,155.079,27.228,152.843,26.212z"/>
		<path d="M152.514,36.246c0.005-0.018,0.01-0.036,0.014-0.054c1.3,0.119-1.981-0.503-2.574-0.47
			c-2.469,0.134-4.938,0.257-7.408,0.367c-7.838,0.349-15.641,0.139-23.481-0.156c-11.382-0.428-22.646-0.304-34.021,0.23
			c-10.816,0.507-21.689-0.515-32.445,0.083c-1.091,0.06-1.785,1.744-0.609,2.285c8.322,3.828,18.035,3.37,26.995,3.28
			c12.322-0.124,24.524-0.859,36.86-0.409c8.382,0.306,16.74,0.708,25.126,0.394c4.13-0.154,8.964,0.406,12.627-1.595
			C155.594,39.109,154.466,36.305,152.514,36.246z"/>
		<path d="M145.266,45.037c-10.888,0.451-21.775,1.043-32.67,1.351c-10.572,0.299-21.148,0.686-31.721,1.046
			c-7.771,0.266-17.839-1.095-25.22,1.731c-0.87,0.333-0.87,1.463,0,1.796c5.358,2.05,12.317,1.32,17.95,1.416
			c9.02,0.153,18.036,0.172,27.055-0.027c10.037-0.221,20.066-0.661,30.1-1.003c3.609-0.123,7.209-0.084,10.814-0.299
			c1.819-0.108,3.637-0.214,5.457-0.293c2.479-0.109,2.745,0.94,2.545-1.532c0.141,1.726,1.651,2.507,3.159,1.843
			c0.169-0.075,0.338-0.15,0.508-0.224c0.769-0.338,1.224-1.365,1.221-2.164C154.452,44.114,148.195,44.915,145.266,45.037z"/>
		<path d="M114.408,59.187c-19.057-4.275-39.217-2.24-58.51-0.915c-2.354,0.162-2.368,3.592,0,3.726
			c19.06,1.075,38.231-1.683,57.085,2.442C116.352,65.176,117.785,59.944,114.408,59.187z"/>
		<path d="M151.678,60.129c-3.953-0.066-8.251,0.43-12.048,1.566c-1.921,0.575-1.633,3.847,0.488,3.659
			c3.896-0.344,7.671-0.111,11.56-0.179C154.878,65.12,154.878,60.184,151.678,60.129z"/>
		<path d="M155.35,74.568c-0.163-1.156-1.4-1.787-2.407-1.863c-2.417-0.184-5.017,0.263-7.44,0.407
			c-0.972,0.057-2.213,0.008-3.146,0.318c-0.392,0.13-0.76,0.248-1.061,0.554c-0.011,0.011-0.012,0.014-0.022,0.025
			c-1.053,0.377-1.055,2.084-0.006,2.467c0.291,0.297,0.687,0.448,1.089,0.581c0.934,0.311,2.175,0.261,3.146,0.319
			c2.424,0.143,5.022,0.591,7.44,0.406c1.007-0.077,2.244-0.708,2.407-1.863C155.421,75.409,155.421,75.078,155.35,74.568z"/>
		<path d="M110.394,74.305c-18.622-1.583-37.383,2.276-56.146,0.481c-1.454-0.139-1.708,2.195-0.339,2.548
			c17.7,4.567,38.409,3.987,56.485,2.207C113.692,79.214,113.725,74.587,110.394,74.305z"/>
	</g>
</g>
<g>
</g>
<g>
</g>
<g>
</g>
<g>
</g>
<g>
</g>
<g>
</g>
<g>
</g>
<g>
</g>
<g>
</g>
<g>
</g>
<g>
</g>
<g>
</g>
<g>
</g>
<g>
</g>
<g>
</g>
</svg>
